<svg width="20" height="18" viewBox="0 0 20 18" fill="none" xmlns="http://www.w3.org/2000/svg">
<path fill-rule="evenodd" clip-rule="evenodd" d="M18.417 0.219745C18.71 0.512738 18.71 0.987728 18.417 1.28072L2.64334 17.0534C2.49734 17.2004 2.30535 17.2734 2.11335 17.2734C1.92136 17.2734 1.72936 17.2004 1.58336 17.0534C1.29037 16.7604 1.29037 16.2864 1.58336 15.9934L3.55527 14.0227C2.14148 12.7295 0.942195 10.9864 0.0614986 8.93375C-0.0204995 8.74375 -0.0204995 8.52976 0.0614986 8.34076C1.08248 5.97682 2.52044 4.01986 4.22041 2.68289C7.51316 0.0769972 11.842 -0.0613242 15.2683 2.30823L17.357 0.219745C17.65 -0.0732483 18.124 -0.0732483 18.417 0.219745ZM18.0468 5.04064C18.7708 6.00162 19.4068 7.11259 19.9377 8.33856C20.0207 8.52856 20.0207 8.74455 19.9377 8.93355C17.8418 13.7904 14.1269 16.6894 9.99998 16.6894C9.063 16.6894 8.13102 16.5374 7.23104 16.2384C6.83805 16.1074 6.62505 15.6824 6.75605 15.2894C6.88704 14.8954 7.31004 14.6864 7.70503 14.8144C8.45201 15.0634 9.22399 15.1894 9.99998 15.1894C13.4279 15.1894 16.5608 12.7475 18.4298 8.63656C17.9738 7.63758 17.4428 6.7326 16.8488 5.94262C16.5998 5.61162 16.6658 5.14063 16.9968 4.89164C17.3268 4.64265 17.7978 4.71064 18.0468 5.04064ZM5.14938 3.86086C3.71342 4.99084 2.48044 6.6368 1.57046 8.63876C2.36389 10.3912 3.40625 11.869 4.61695 12.9604L6.7547 10.8229C6.31979 10.183 6.08576 9.42848 6.08576 8.63836C6.08576 6.4784 7.84172 4.72144 9.99967 4.72144C10.7826 4.72144 11.5485 4.95985 12.1862 5.39073L14.1877 3.38937C11.3349 1.54519 7.86281 1.71343 5.14938 3.86086ZM13.2372 8.46136C13.6452 8.53436 13.9162 8.92435 13.8432 9.33234C13.5562 10.9253 12.2942 12.1893 10.7023 12.4793C10.6573 12.4873 10.6113 12.4913 10.5673 12.4913C10.2123 12.4913 9.89628 12.2373 9.83028 11.8753C9.75628 11.4683 10.0263 11.0773 10.4343 11.0033C11.4142 10.8253 12.1902 10.0473 12.3662 9.06635C12.4402 8.65936 12.8302 8.39136 13.2372 8.46136ZM9.99967 6.22141C8.6687 6.22141 7.58573 7.30539 7.58573 8.63836C7.58573 9.02373 7.67645 9.39573 7.84747 9.7298L11.093 6.48384C10.7589 6.31357 10.3831 6.22141 9.99967 6.22141Z" fill="#A7A8BB"/>
</svg>
